<svg xmlns="http://www.w3.org/2000/svg" viewBox="0 0 512 512">
  <defs>
    <linearGradient id="ng" x1="0" y1="0" x2="1" y2="1">
      <stop offset="0%" stop-color="#6ea8fe"/>
      <stop offset="100%" stop-color="#7ce0c3"/>
    </linearGradient>
  </defs>
  <rect width="512" height="512" rx="108" fill="#0b1020"/>
  <path d="M256 96 L256 62" stroke="#f5c518" stroke-width="16" stroke-linecap="round"/>
  <path d="M172 120 L150 94" stroke="#f5c518" stroke-width="16" stroke-linecap="round"/>
  <path d="M340 120 L362 94" stroke="#f5c518" stroke-width="16" stroke-linecap="round"/>
  <path d="M70 256 Q256 124 442 256 Q256 388 70 256 Z" fill="none" stroke="url(#ng)" stroke-width="22" stroke-linejoin="round"/>
  <circle cx="256" cy="256" r="88" fill="#0e1730" stroke="url(#ng)" stroke-width="10"/>
  <circle cx="256" cy="256" r="58" fill="none" stroke="#28406e" stroke-width="4"/>
  <circle cx="256" cy="256" r="30" fill="none" stroke="#28406e" stroke-width="4"/>
  <path d="M256 256 L256 168 A88 88 0 0 1 331 212 Z" fill="#7ce0c3" opacity="0.35"/>
  <line x1="256" y1="256" x2="331" y2="212" stroke="#7ce0c3" stroke-width="8" stroke-linecap="round"/>
  <circle cx="225" cy="293" r="11" fill="#f5c518"/>
  <circle cx="301" cy="241" r="9" fill="#e8467c"/>
  <circle cx="236" cy="224" r="7" fill="#6ea8fe"/>
  <circle cx="256" cy="256" r="10" fill="#eef1fb"/>
</svg>
